<?xml version="1.0" encoding="UTF-8"?>
<!-- License : CC BY-SA 3.0 https://creativecommons.org/licenses/by-sa/3.0/fr/ -->
<svg id="a" data-name="Layer 1" xmlns="http://www.w3.org/2000/svg" xmlns:xlink="http://www.w3.org/1999/xlink" viewBox="0 0 95.9000015259 89.3999969959">
  <defs>
    <style>
      .e, .f {
        fill: none;
      }

      .g {
        fill: #e9e7e7;
      }

      .h {
        fill: #fff;
      }

      .i {
        fill: url(#c);
        fill-opacity: .8999999762;
      }

      .f {
        clip-path: url(#b);
      }

      .j {
        fill: url(#d);
        stroke: rgba(26, 26, 26, .0599999987);
        stroke-width: 1.5px;
      }
    </style>
    <clipPath id="b">
      <path class="e" d="m91.6999845505,59.2499862909l-4.8999633789-5.5-.5-.5.0999755859-.700012207c.4000244141-2.5999755859.5-5.299987793.299987793-7.8999633789-.299987793-5.1000366211-1.700012207-10.200012207-4-14.9000244141h-.0999755859c-.299987793-.5999755859-.6000366211-1.299987793-1-1.8999633789-3-5.200012207-7.299987793-9.700012207-12.299987793-13-2.1000366211-1.4000244141-4.3000488281-2.6000366211-6.700012207-3.5l-.6000366211-.3000488281-.1999511719-.5999755859-2.3000488281-7h-23l-2.299987793,7-.200012207.5999755859-.5999755859.3000488281c-2.299987793.8999633789-4.5999755859,2.0999755859-6.700012207,3.5-5,3.299987793-9.299987793,7.799987793-12.299987793,13-.299987793.5999755859-.700012207,1.299987793-1,1.8999633789-2.4000244141,4.700012207-3.799987793,9.700012207-4.0999755859,14.9000244141-.200012207,2.5999755859-.1000366211,5.299987793.299987793,7.8999633789l.0999755859.700012207-.5.5-4.8999633789,5.5.1999511719.299987793,3.809387207,6.5999755859-.0093383789.0000610352,7.5,13,7.1999511719-1.6000366211.700012207-.1999511719.5.5c6.200012207,5.1999511719,14.6000366211,8.0999755859,23.700012207,8.0999755859s17.5-2.9000244141,23.700012207-8.0999755859l.5999755859-.5.700012207.1999511719,7.299987793,1.6000366211,2.700012207-4.700012207,5.0999755859-8.799987793-.0208740234.0001220703,3.5208740234-6.1001586914.200012207-.299987793Z"/>
    </clipPath>
    <linearGradient id="c" data-name="Dégradé sans nom 3" x1="48.000002861" y1="93.5898300409" x2="48.000002861" y2="11.8204284906" gradientTransform="translate(0 96.2898316383) scale(1 -1)" gradientUnits="userSpaceOnUse">
      <stop offset="0" stop-color="#000"/>
      <stop offset=".1248999977" stop-color="#000"/>
      <stop offset=".1255999947" stop-color="#704915"/>
      <stop offset=".2485000038" stop-color="#704915"/>
      <stop offset=".2502000046" stop-color="#ed0000"/>
      <stop offset=".3815000153" stop-color="#ed0000"/>
      <stop offset=".3824000168" stop-color="#fa8800"/>
      <stop offset=".5229999924" stop-color="#fa8800"/>
      <stop offset=".5236999893" stop-color="#ffd100"/>
      <stop offset=".6476000214" stop-color="#ffd100"/>
      <stop offset=".6480000305" stop-color="#109a0a"/>
      <stop offset=".78" stop-color="#109a0a"/>
      <stop offset=".7812999725" stop-color="#0541ad"/>
      <stop offset=".9138999939" stop-color="#0541ad"/>
      <stop offset=".9145999908" stop-color="#bc29cc"/>
    </linearGradient>
    <linearGradient id="d" data-name="Dégradé sans nom" x1="47.999504241" y1="1566.9516479969" x2="47.999504241" y2="1480.5779297352" gradientTransform="translate(.00049862 -1479.7792358398)" gradientUnits="userSpaceOnUse">
      <stop offset="0" stop-color="#dedcc3"/>
      <stop offset="0" stop-color="#fff"/>
    </linearGradient>
  </defs>
  <path class="g" d="m95.9000015259,58.7999985218l-13.9000015259,24.3000030518-8.9000015259-1.9000015259c-6.8000030518,5.3000030518-15.7000007629,8.1999969482-25.0999984741,8.1999969482h0c-9.5,0-18.3999996185-2.9000015259-25.1000003815-8.1999969482l-8.8999996185,1.9000015259L0,58.7999985218l6-6.5999984741c-1-9,.8999996185-18.2000007629,5.3999996185-26s11.5-14,19.7999973297-17.6000003815l2.8000030518-8.5999996662h28l2.8000030518,8.5000002384c8.3000030518,3.5999994278,15.3000030518,9.8000001907,19.8000030518,17.6000013351,4.5999984741,7.7999992371,6.4000015259,17,5.4000015259,26l5.8999938965,6.6999969482h0Z"/>
  <path class="h" d="m59.5,3.5000002384l2.2999992371,7,.2000007629.6000003815.5999984741.3000001907c8,3.2000007629,14.6999969482,9.1000003815,19,16.5,4.3000030518,7.5,6,16.2000007629,4.8000030518,24.7000007629l-.0999984741.7000007629.5.5,4.9000015259,5.5-11.5000076294,19.8999977112-7.3000030518-1.5999984741-.6999969482-.1999969482-.5999984741.5c-6.0999984741,5.1999969482-14.5999984741,8.0999984741-23.5999984741,8.0999984741s-17.5-2.9000015259-23.7000007629-8.0999984741l-.5-.5-.7000007629.1999969482-7.2999992371,1.5999984741-11.4999990463-19.9000015259,4.9000005722-5.5.5-.5-.1000003815-.7000007629c-1.1999998093-8.5.5-17.2000007629,4.8000011444-24.7000007629,4.2999992371-7.3999996185,11-13.2999992371,19-16.5l.5999984741-.3000001907.2000007629-.6000003815,2.2999992371-7,23,.0000038147m1.0999984741-1.5000002384h-25.0999984741l-2.5999984741,8.0000002384c-8.2000007629,3.3000001907-15.2000007629,9.3000001907-19.7000007629,17.1999998093-4.5,7.7000007629-6.3000001907,16.9000015259-5,25.7000007629l-5.6999998093,6.2999992371,12.4999990463,21.5999984741,8.2999992371-1.8000030518c6.7000007629,5.5999984741,15.7000007629,8.4000015259,24.6000022888,8.4000015259s17.9000015259-2.8000030518,24.5999984741-8.4000015259l8.3000030518,1.8000030518,12.5999984741-21.7000007629-5.5999984741-6.2999992371c1.3000030518-8.7999992371-.5-18-5-25.7000007629-4.5999984741-7.8999996185-11.5999984741-13.8000001907-19.6999969482-17.2000007629l-2.5000076294-7.8999969959h0Z"/>
  <g class="f">
    <path class="i" d="m35.4000051022,2.7000015974l-2.2999992371,8.7000002861C15.0000035763,18.800001502,6.7000033855,35.800001502,9.300003767,52.6000007391l-6.4000000954,6.4000015259,12.5999999046,21.8999977112,8.7000007629-2.3000030518c6.7999992371,5.1999969482,15.2000007629,8.0999984741,23.7999992371,8.0999984741s17-2.8000030518,23.8000030518-8.0999984741l8.6999969482,2.3000030518,12.5999984741-21.9000015259-6.4000015259-6.4000015259c3.3000030518-19.2999954224-10.7999954224-36.4999961853-23.7999954224-41.1999950409l-2.2999992371-8.6999998093-25.2000007629-.0000004768Z"/>
  </g>
  <path class="j" color-rendering="auto" d="m45.7000007629,15.9000008106v3.8999996185c-13.8999977112,1.1000003815-24.7999992371,12.6999988556-24.7999992371,26.8000011444,0,4.0999984741.8999996185,8,2.6000003815,11.5l-3.2999992371,1.9000015259,2.2999992371,3.9000015259,3.2999992371-1.9000015259c4.8999996185,7,13.0000019073,11.5999984741,22.1999988556,11.5999984741s17.3000030518-4.5999984741,22.1999969482-11.5999984741l3.3000030518,1.9000015259,2.3000030518-3.9000015259-3.3000030518-1.9000015259c1.6999969482-3.5,2.5999984741-7.4000015259,2.5999984741-11.5,0-14.0999984741-10.9000015259-25.7999992371-24.7999992371-26.8999996185v-3.8999996185l-4.5999984741.0999984741Zm0,8.2999992371v9.5999984741h-3.7999992371l6,10.5999984741,6.0999984741-10.4999961853h-3.7999992371v-9.6000003815c11.2999992371,1.1000003815,20.2000007629,10.6000003815,20.2000007629,22.3000011444,0,3.2999992371-.6999969482,6.4000015259-2,9.2000007629l-8.4000015259-4.8000030518,1.9000015259-3.2999992371h-12.1000022888l6.1000022888,10.5,1.9000015259-3.2999992371,8.4000015259,4.7999992371c-4.0999984741,5.6999969482-10.7999992371,9.4000015259-18.2999992371,9.4000015259s-14.2000007629-3.6999969482-18.2999992371-9.4000015259l8.4000015259-4.7999992371,1.9000015259,3.2999992371,6.0999908447-10.5h-12.2000007629l1.9000015259,3.2999992371-8.3999996185,4.7999992371c-1.2999992371-2.7999992371-2-5.9000015259-2-9.2000007629.0999984741-11.6999969482,8.9999980927-21.1999969482,20.3999996185-22.3999977112h0Z" image-rendering="auto" shape-rendering="auto"/>
</svg>